HIERARCHY
ROOT Hips
{
 OFFSET 0.000000 0.000000 0.000000
 CHANNELS 6 Xposition Yposition Zposition Yrotation Xrotation Zrotation
 JOINT Chest
 {
  OFFSET 0.000000 9.585900 0.002600
  CHANNELS 3 Yrotation Xrotation Zrotation
  JOINT Chest2
  {
   OFFSET 0.000000 9.601200 -0.005300
   CHANNELS 3 Yrotation Xrotation Zrotation
   JOINT Chest3
   {
    OFFSET 0.000000 9.561800 0.000000
    CHANNELS 3 Yrotation Xrotation Zrotation
    JOINT Chest4
    {
     OFFSET 0.000000 9.552100 0.000000
     CHANNELS 3 Yrotation Xrotation Zrotation
     JOINT Neck
     {
      OFFSET 0.000000 14.453000 0.000000
      CHANNELS 3 Yrotation Xrotation Zrotation
      JOINT Head
      {
       OFFSET 0.000000 8.936500 -0.011300
       CHANNELS 3 Yrotation Xrotation Zrotation
       End Site
       {
        OFFSET 0.000000 17.073600 -0.006000
       }
      }
     }
     JOINT RightCollar
     {
      OFFSET -2.921100 9.558500 0.000000
      CHANNELS 3 Yrotation Xrotation Zrotation
      JOINT RightShoulder
      {
       OFFSET -13.519700 0.000000 0.000000
       CHANNELS 3 Yrotation Xrotation Zrotation
       JOINT RightElbow
       {
        OFFSET 0.000000 -29.696600 0.000000
        CHANNELS 3 Yrotation Xrotation Zrotation
        JOINT RightWrist
        {
         OFFSET 0.000000 -24.004700 0.000000
         CHANNELS 3 Yrotation Xrotation Zrotation
         End Site
         {
          OFFSET 0.000000 -17.728500 0.000000
         }
        }
       }
      }
     }
     JOINT LeftCollar
     {
      OFFSET 2.921100 9.558500 0.000000
      CHANNELS 3 Yrotation Xrotation Zrotation
      JOINT LeftShoulder
      {
       OFFSET 13.519700 0.000000 0.000000
       CHANNELS 3 Yrotation Xrotation Zrotation
       JOINT LeftElbow
       {
        OFFSET 0.000000 -29.696600 0.000000
        CHANNELS 3 Yrotation Xrotation Zrotation
        JOINT LeftWrist
        {
         OFFSET 0.000000 -24.004700 0.000000
         CHANNELS 3 Yrotation Xrotation Zrotation
         End Site
         {
          OFFSET 0.000000 -17.728500 0.000000
         }
        }
       }
      }
     }
    }
   }
  }
 }
 JOINT RightHip
 {
  OFFSET -7.771700 -0.012900 -0.001300
  CHANNELS 3 Yrotation Xrotation Zrotation
  JOINT RightKnee
  {
   OFFSET 0.000000 -40.869800 0.001200
   CHANNELS 3 Yrotation Xrotation Zrotation
   JOINT RightAnkle
   {
    OFFSET 0.000000 -39.717900 0.002100
    CHANNELS 3 Yrotation Xrotation Zrotation
    JOINT RightToe
    {
     OFFSET 0.000000 -4.965400 11.033500
     CHANNELS 3 Yrotation Xrotation Zrotation
     End Site
     {
      OFFSET 0.000000 -1.423100 5.872300
     }
    }
   }
  }
 }
 JOINT LeftHip
 {
  OFFSET 7.771700 -0.012900 -0.001300
  CHANNELS 3 Yrotation Xrotation Zrotation
  JOINT LeftKnee
  {
   OFFSET 0.000000 -40.869800 0.001200
   CHANNELS 3 Yrotation Xrotation Zrotation
   JOINT LeftAnkle
   {
    OFFSET 0.000000 -39.717900 0.002100
    CHANNELS 3 Yrotation Xrotation Zrotation
    JOINT LeftToe
    {
     OFFSET 0.000000 -4.965400 11.033500
     CHANNELS 3 Yrotation Xrotation Zrotation
     End Site
     {
      OFFSET 0.000000 -1.423100 5.872300
     }
    }
   }
  }
 }
}
MOTION
Frames: 5
Frame Time: 0.008333
-57.705948 57.759724 11.503032 179.378701 -49.328232 -2.921089 3.068967 21.857105 2.833163 1.543458 12.523857 1.510085 1.999023 15.635966 1.946225 1.543674 12.514762 1.510994 -0.706982 16.755681 2.874597 -2.295659 -4.596950 5.575298 4.229745 3.141804 0.442837 -3.011019 -18.908649 -8.809635 -20.834249 -55.856396 67.398290 9.698474 1.197146 -42.676080 -9.265861 -0.825983 -1.287714 2.451715 -17.246266 11.838137 21.168412 -35.758966 -70.372003 6.997483 1.684232 14.784147 5.765379 -22.004833 -3.523078 -33.918547 74.961667 -38.840219 6.289549 -16.187551 12.904946 -0.000624 -0.093063 -0.003551 -6.847946 -19.861727 4.642396 86.441698 81.596874 85.679780 0.204700 -21.738320 -17.840990 0.065218 0.092858 0.022667
-57.708367 57.759564 11.501232 179.375191 -49.312760 -2.916254 3.066686 21.850208 2.831772 1.541961 12.521239 1.511755 1.998326 15.630423 1.942441 1.542146 12.512209 1.516119 -0.704297 16.757707 2.867661 -2.280024 -4.595851 5.561739 4.204677 3.140509 0.444865 -2.982833 -18.899894 -8.816471 -20.843972 -55.828299 67.410033 9.726319 1.219842 -42.667935 -9.282498 -0.808228 -1.276986 2.440906 -17.197726 11.820947 21.197934 -35.810636 -70.363218 7.020753 1.691615 14.800264 5.769541 -22.020036 -3.526098 -33.921154 74.965098 -38.846353 6.277091 -16.201477 12.905311 -0.007181 -0.090238 0.001207 -6.844708 -19.875495 4.639771 86.440257 81.598474 85.679940 0.206789 -21.742183 -17.840859 0.067891 0.093488 0.024061
-57.710658 57.760561 11.498287 179.369376 -49.304838 -2.911111 3.067060 21.863478 2.835124 1.540628 12.504377 1.510575 1.990983 15.623456 1.954190 1.542141 12.507001 1.507668 -0.699091 16.764711 2.860084 -2.264408 -4.600779 5.545045 4.185846 3.147619 0.443730 -2.958165 -18.888528 -8.816692 -20.862742 -55.782871 67.429336 9.779556 1.233124 -42.671320 -9.300733 -0.784283 -1.270628 2.451203 -17.184605 11.806830 21.200734 -35.833656 -70.351168 7.031533 1.675636 14.791964 5.779455 -22.029469 -3.528962 -33.945203 74.967805 -38.870582 6.280471 -16.206567 12.908136 -0.012168 -0.103622 0.000703 -6.826893 -19.879197 4.633382 86.401406 81.600424 85.652655 0.215883 -21.747048 -17.839796 0.065413 0.097164 0.023499
-57.712813 57.759948 11.496578 179.367359 -49.282303 -2.910323 3.065933 21.849968 2.836780 1.539077 12.497869 1.512921 1.989322 15.617404 1.955099 1.539447 12.495571 1.514903 -0.695455 16.772040 2.849499 -2.246877 -4.610430 5.528103 4.179031 3.163545 0.435160 -2.952655 -18.880983 -8.813173 -20.872088 -55.755709 67.448823 9.815659 1.236895 -42.681821 -9.324818 -0.739165 -1.244588 2.475539 -17.185840 11.770319 21.203409 -35.856137 -70.343531 7.049491 1.671143 14.791835 5.787979 -22.053737 -3.532993 -33.972218 74.969555 -38.894349 6.275841 -16.214631 12.911481 -0.013133 -0.102148 0.001544 -6.825484 -19.901211 4.635166 86.411194 81.603714 85.665840 0.219720 -21.749809 -17.844368 0.067037 0.096522 0.027776
-57.713953 57.757995 11.495984 179.368258 -49.246639 -2.918125 3.064913 21.820967 2.843734 1.536682 12.492706 1.515834 1.990274 15.614637 1.951928 1.539408 12.485517 1.520862 -0.689163 16.769467 2.847207 -2.237905 -4.616354 5.512793 4.168872 3.175273 0.435155 -2.938007 -18.877977 -8.818690 -20.889013 -55.728906 67.469457 9.839776 1.246327 -42.688854 -9.334038 -0.714734 -1.234256 2.477520 -17.171238 11.758867 21.211079 -35.876715 -70.345030 7.076130 1.681067 14.815087 5.788437 -22.087659 -3.532933 -33.970252 74.971936 -38.891530 6.292864 -16.238071 12.908825 -0.011273 -0.096227 0.002639 -6.826292 -19.936475 4.641307 86.429664 81.603489 85.693200 0.225614 -21.756851 -17.849633 0.067320 0.100667 0.028783
